<mxfile host="app.diagrams.net" modified="2020-06-09T08:26:46.138Z" agent="5.0 (Windows NT 10.0; Win64; x64) AppleWebKit/537.36 (KHTML, like Gecko) Chrome/83.0.4103.97 Safari/537.36" etag="Vr2gNIWJzcIMAh4b8jmO" version="13.1.14" type="github">
  <diagram name="Page-1" id="13e1069c-82ec-6db2-03f1-153e76fe0fe0">
    <mxGraphModel dx="1662" dy="928" grid="1" gridSize="10" guides="1" tooltips="1" connect="1" arrows="1" fold="1" page="1" pageScale="1" pageWidth="1100" pageHeight="850" background="#ffffff" math="0" shadow="0">
      <root>
        <mxCell id="0" />
        <mxCell id="1" parent="0" />
        <mxCell id="7baba1c4bc27f4b0-2" value="basedata" style="shape=umlLifeline;perimeter=lifelinePerimeter;whiteSpace=wrap;html=1;container=1;collapsible=0;recursiveResize=0;outlineConnect=0;rounded=1;shadow=0;comic=0;labelBackgroundColor=none;strokeWidth=1;fontFamily=Verdana;fontSize=12;align=center;" parent="1" vertex="1">
          <mxGeometry x="360" y="80" width="100" height="760" as="geometry" />
        </mxCell>
        <mxCell id="Cx4m4QL9GT3mK0Wsf1BY-42" value="" style="html=1;points=[];perimeter=orthogonalPerimeter;" vertex="1" parent="7baba1c4bc27f4b0-2">
          <mxGeometry x="45" y="570" width="10" height="130" as="geometry" />
        </mxCell>
        <mxCell id="7baba1c4bc27f4b0-3" value="syssms" style="shape=umlLifeline;perimeter=lifelinePerimeter;whiteSpace=wrap;html=1;container=1;collapsible=0;recursiveResize=0;outlineConnect=0;rounded=1;shadow=0;comic=0;labelBackgroundColor=none;strokeWidth=1;fontFamily=Verdana;fontSize=12;align=center;" parent="1" vertex="1">
          <mxGeometry x="640" y="80" width="100" height="750" as="geometry" />
        </mxCell>
        <mxCell id="Cx4m4QL9GT3mK0Wsf1BY-2" value="" style="html=1;points=[];perimeter=orthogonalPerimeter;" vertex="1" parent="7baba1c4bc27f4b0-3">
          <mxGeometry x="45" y="90" width="10" height="250" as="geometry" />
        </mxCell>
        <mxCell id="Cx4m4QL9GT3mK0Wsf1BY-7" value="" style="html=1;points=[];perimeter=orthogonalPerimeter;" vertex="1" parent="7baba1c4bc27f4b0-3">
          <mxGeometry x="55" y="120" width="10" height="40" as="geometry" />
        </mxCell>
        <mxCell id="Cx4m4QL9GT3mK0Wsf1BY-14" value="" style="endArrow=open;endFill=1;endSize=12;html=1;exitX=1;exitY=0;exitDx=0;exitDy=0;exitPerimeter=0;" edge="1" parent="7baba1c4bc27f4b0-3" source="Cx4m4QL9GT3mK0Wsf1BY-7" target="Cx4m4QL9GT3mK0Wsf1BY-7">
          <mxGeometry width="160" relative="1" as="geometry">
            <mxPoint x="-170" y="140" as="sourcePoint" />
            <mxPoint x="-10" y="140" as="targetPoint" />
            <Array as="points">
              <mxPoint x="140" y="130" />
            </Array>
          </mxGeometry>
        </mxCell>
        <mxCell id="Cx4m4QL9GT3mK0Wsf1BY-15" value="判断API 类型" style="edgeLabel;html=1;align=center;verticalAlign=middle;resizable=0;points=[];" vertex="1" connectable="0" parent="Cx4m4QL9GT3mK0Wsf1BY-14">
          <mxGeometry x="-0.2759" y="-2" relative="1" as="geometry">
            <mxPoint x="23.81" y="-10.18" as="offset" />
          </mxGeometry>
        </mxCell>
        <mxCell id="Cx4m4QL9GT3mK0Wsf1BY-16" value="" style="html=1;points=[];perimeter=orthogonalPerimeter;" vertex="1" parent="7baba1c4bc27f4b0-3">
          <mxGeometry x="55" y="190" width="10" height="40" as="geometry" />
        </mxCell>
        <mxCell id="Cx4m4QL9GT3mK0Wsf1BY-20" value="上传视频" style="html=1;verticalAlign=bottom;endArrow=block;" edge="1" parent="7baba1c4bc27f4b0-3" target="7baba1c4bc27f4b0-4">
          <mxGeometry width="80" relative="1" as="geometry">
            <mxPoint x="50" y="250" as="sourcePoint" />
            <mxPoint x="130" y="250" as="targetPoint" />
          </mxGeometry>
        </mxCell>
        <mxCell id="Cx4m4QL9GT3mK0Wsf1BY-25" value="" style="html=1;points=[];perimeter=orthogonalPerimeter;" vertex="1" parent="7baba1c4bc27f4b0-3">
          <mxGeometry x="45" y="380" width="10" height="110" as="geometry" />
        </mxCell>
        <mxCell id="Cx4m4QL9GT3mK0Wsf1BY-38" value="上传视频" style="html=1;verticalAlign=bottom;endArrow=block;entryX=-0.2;entryY=0.2;entryDx=0;entryDy=0;entryPerimeter=0;" edge="1" parent="7baba1c4bc27f4b0-3" target="Cx4m4QL9GT3mK0Wsf1BY-30">
          <mxGeometry width="80" relative="1" as="geometry">
            <mxPoint x="60" y="440" as="sourcePoint" />
            <mxPoint x="140" y="440" as="targetPoint" />
          </mxGeometry>
        </mxCell>
        <mxCell id="7baba1c4bc27f4b0-4" value="aliyun&lt;br&gt;vod" style="shape=umlLifeline;perimeter=lifelinePerimeter;whiteSpace=wrap;html=1;container=1;collapsible=0;recursiveResize=0;outlineConnect=0;rounded=1;shadow=0;comic=0;labelBackgroundColor=none;strokeWidth=1;fontFamily=Verdana;fontSize=12;align=center;" parent="1" vertex="1">
          <mxGeometry x="870" y="80" width="100" height="750" as="geometry" />
        </mxCell>
        <mxCell id="Cx4m4QL9GT3mK0Wsf1BY-19" value="" style="html=1;points=[];perimeter=orthogonalPerimeter;" vertex="1" parent="7baba1c4bc27f4b0-4">
          <mxGeometry x="45" y="250" width="10" height="60" as="geometry" />
        </mxCell>
        <mxCell id="7baba1c4bc27f4b0-8" value="大象医生管理端" style="shape=umlLifeline;perimeter=lifelinePerimeter;whiteSpace=wrap;html=1;container=1;collapsible=0;recursiveResize=0;outlineConnect=0;rounded=1;shadow=0;comic=0;labelBackgroundColor=none;strokeWidth=1;fontFamily=Verdana;fontSize=12;align=center;" parent="1" vertex="1">
          <mxGeometry x="100" y="80" width="100" height="750" as="geometry" />
        </mxCell>
        <mxCell id="Cx4m4QL9GT3mK0Wsf1BY-1" value="" style="html=1;points=[];perimeter=orthogonalPerimeter;" vertex="1" parent="7baba1c4bc27f4b0-8">
          <mxGeometry x="45" y="90" width="10" height="260" as="geometry" />
        </mxCell>
        <mxCell id="Cx4m4QL9GT3mK0Wsf1BY-3" value="" style="html=1;verticalAlign=bottom;endArrow=block;" edge="1" parent="7baba1c4bc27f4b0-8" target="7baba1c4bc27f4b0-3">
          <mxGeometry width="80" relative="1" as="geometry">
            <mxPoint x="50" y="90" as="sourcePoint" />
            <mxPoint x="130" y="90" as="targetPoint" />
          </mxGeometry>
        </mxCell>
        <mxCell id="Cx4m4QL9GT3mK0Wsf1BY-4" value="上传视频" style="edgeLabel;html=1;align=center;verticalAlign=middle;resizable=0;points=[];" vertex="1" connectable="0" parent="Cx4m4QL9GT3mK0Wsf1BY-3">
          <mxGeometry x="-0.2139" y="-1" relative="1" as="geometry">
            <mxPoint x="-92" y="-1" as="offset" />
          </mxGeometry>
        </mxCell>
        <mxCell id="Cx4m4QL9GT3mK0Wsf1BY-24" value="" style="html=1;points=[];perimeter=orthogonalPerimeter;" vertex="1" parent="7baba1c4bc27f4b0-8">
          <mxGeometry x="45" y="380" width="10" height="120" as="geometry" />
        </mxCell>
        <mxCell id="Cx4m4QL9GT3mK0Wsf1BY-28" value="上传视频截图" style="html=1;verticalAlign=bottom;endArrow=block;" edge="1" parent="7baba1c4bc27f4b0-8" target="Cx4m4QL9GT3mK0Wsf1BY-25">
          <mxGeometry width="80" relative="1" as="geometry">
            <mxPoint x="60" y="390" as="sourcePoint" />
            <mxPoint x="140" y="390" as="targetPoint" />
          </mxGeometry>
        </mxCell>
        <mxCell id="Cx4m4QL9GT3mK0Wsf1BY-41" value="" style="html=1;points=[];perimeter=orthogonalPerimeter;" vertex="1" parent="7baba1c4bc27f4b0-8">
          <mxGeometry x="45" y="540" width="10" height="140" as="geometry" />
        </mxCell>
        <mxCell id="Cx4m4QL9GT3mK0Wsf1BY-43" value="点击“创建视频”&lt;br&gt;保存视频ID，预览图ID，&lt;br&gt;视频相关信息" style="html=1;verticalAlign=bottom;endArrow=block;" edge="1" parent="7baba1c4bc27f4b0-8" target="7baba1c4bc27f4b0-2">
          <mxGeometry width="80" relative="1" as="geometry">
            <mxPoint x="60" y="570" as="sourcePoint" />
            <mxPoint x="130" y="570" as="targetPoint" />
          </mxGeometry>
        </mxCell>
        <mxCell id="7baba1c4bc27f4b0-40" value="前端交互" style="shape=note;whiteSpace=wrap;html=1;size=14;verticalAlign=top;align=left;spacingTop=-6;rounded=0;shadow=0;comic=0;labelBackgroundColor=none;strokeWidth=1;fontFamily=Verdana;fontSize=12" parent="1" vertex="1">
          <mxGeometry x="100" y="40" width="100" height="35" as="geometry" />
        </mxCell>
        <mxCell id="7baba1c4bc27f4b0-41" value="基础信息服务" style="shape=note;whiteSpace=wrap;html=1;size=14;verticalAlign=top;align=left;spacingTop=-6;rounded=0;shadow=0;comic=0;labelBackgroundColor=none;strokeWidth=1;fontFamily=Verdana;fontSize=12" parent="1" vertex="1">
          <mxGeometry x="360" y="40" width="100" height="35" as="geometry" />
        </mxCell>
        <mxCell id="7baba1c4bc27f4b0-42" value="OSS、VOD、消息服务" style="shape=note;whiteSpace=wrap;html=1;size=14;verticalAlign=top;align=left;spacingTop=-6;rounded=0;shadow=0;comic=0;labelBackgroundColor=none;strokeWidth=1;fontFamily=Verdana;fontSize=12" parent="1" vertex="1">
          <mxGeometry x="640" y="40" width="100" height="35" as="geometry" />
        </mxCell>
        <mxCell id="7baba1c4bc27f4b0-43" value="阿里云视频点播" style="shape=note;whiteSpace=wrap;html=1;size=14;verticalAlign=top;align=left;spacingTop=-6;rounded=0;shadow=0;comic=0;labelBackgroundColor=none;strokeWidth=1;fontFamily=Verdana;fontSize=12" parent="1" vertex="1">
          <mxGeometry x="870" y="40" width="100" height="35" as="geometry" />
        </mxCell>
        <mxCell id="Cx4m4QL9GT3mK0Wsf1BY-17" value="" style="endArrow=open;endFill=1;endSize=12;html=1;exitX=1;exitY=0;exitDx=0;exitDy=0;exitPerimeter=0;entryX=0.5;entryY=1;entryDx=0;entryDy=0;entryPerimeter=0;" edge="1" parent="1" target="Cx4m4QL9GT3mK0Wsf1BY-16">
          <mxGeometry width="160" relative="1" as="geometry">
            <mxPoint x="700" y="270" as="sourcePoint" />
            <mxPoint x="700" y="300" as="targetPoint" />
            <Array as="points">
              <mxPoint x="775" y="280" />
              <mxPoint x="760" y="300" />
            </Array>
          </mxGeometry>
        </mxCell>
        <mxCell id="Cx4m4QL9GT3mK0Wsf1BY-18" value="组装签名和发送对象" style="edgeLabel;html=1;align=center;verticalAlign=middle;resizable=0;points=[];" vertex="1" connectable="0" parent="Cx4m4QL9GT3mK0Wsf1BY-17">
          <mxGeometry x="-0.2759" y="-2" relative="1" as="geometry">
            <mxPoint x="42.769999999999996" y="-9.65" as="offset" />
          </mxGeometry>
        </mxCell>
        <mxCell id="Cx4m4QL9GT3mK0Wsf1BY-21" value="上传完成" style="html=1;verticalAlign=bottom;endArrow=block;exitX=-0.1;exitY=1;exitDx=0;exitDy=0;exitPerimeter=0;" edge="1" parent="1" source="Cx4m4QL9GT3mK0Wsf1BY-19">
          <mxGeometry width="80" relative="1" as="geometry">
            <mxPoint x="510" y="220" as="sourcePoint" />
            <mxPoint x="700" y="390" as="targetPoint" />
          </mxGeometry>
        </mxCell>
        <mxCell id="Cx4m4QL9GT3mK0Wsf1BY-23" value="上传完成返回视频信息&lt;br&gt;视频唯一ID&amp;nbsp;&lt;br&gt;时长、有效播放地址（最长30天）" style="html=1;verticalAlign=bottom;endArrow=block;" edge="1" parent="1" source="7baba1c4bc27f4b0-3">
          <mxGeometry x="0.0091" y="-14" width="80" relative="1" as="geometry">
            <mxPoint x="570" y="410" as="sourcePoint" />
            <mxPoint x="160" y="420" as="targetPoint" />
            <Array as="points">
              <mxPoint x="660" y="420" />
            </Array>
            <mxPoint as="offset" />
          </mxGeometry>
        </mxCell>
        <mxCell id="Cx4m4QL9GT3mK0Wsf1BY-29" value="aliyun&lt;br&gt;oss" style="shape=umlLifeline;perimeter=lifelinePerimeter;whiteSpace=wrap;html=1;container=1;collapsible=0;recursiveResize=0;outlineConnect=0;rounded=1;shadow=0;comic=0;labelBackgroundColor=none;strokeWidth=1;fontFamily=Verdana;fontSize=12;align=center;" vertex="1" parent="1">
          <mxGeometry x="1000" y="80" width="100" height="750" as="geometry" />
        </mxCell>
        <mxCell id="Cx4m4QL9GT3mK0Wsf1BY-30" value="" style="html=1;points=[];perimeter=orthogonalPerimeter;" vertex="1" parent="Cx4m4QL9GT3mK0Wsf1BY-29">
          <mxGeometry x="45" y="430" width="10" height="50" as="geometry" />
        </mxCell>
        <mxCell id="Cx4m4QL9GT3mK0Wsf1BY-31" value="阿里云文件存储" style="shape=note;whiteSpace=wrap;html=1;size=14;verticalAlign=top;align=left;spacingTop=-6;rounded=0;shadow=0;comic=0;labelBackgroundColor=none;strokeWidth=1;fontFamily=Verdana;fontSize=12" vertex="1" parent="1">
          <mxGeometry x="1000" y="40" width="100" height="35" as="geometry" />
        </mxCell>
        <mxCell id="Cx4m4QL9GT3mK0Wsf1BY-35" value="" style="html=1;points=[];perimeter=orthogonalPerimeter;" vertex="1" parent="1">
          <mxGeometry x="690" y="480" width="10" height="40" as="geometry" />
        </mxCell>
        <mxCell id="Cx4m4QL9GT3mK0Wsf1BY-36" value="" style="endArrow=open;endFill=1;endSize=12;html=1;exitX=1;exitY=0;exitDx=0;exitDy=0;exitPerimeter=0;entryX=1.2;entryY=0.975;entryDx=0;entryDy=0;entryPerimeter=0;" edge="1" parent="1" source="Cx4m4QL9GT3mK0Wsf1BY-35" target="Cx4m4QL9GT3mK0Wsf1BY-35">
          <mxGeometry width="160" relative="1" as="geometry">
            <mxPoint x="715" y="210" as="sourcePoint" />
            <mxPoint x="715" y="240" as="targetPoint" />
            <Array as="points">
              <mxPoint x="780" y="480" />
            </Array>
          </mxGeometry>
        </mxCell>
        <mxCell id="Cx4m4QL9GT3mK0Wsf1BY-37" value="组装签名和发送对象" style="edgeLabel;html=1;align=center;verticalAlign=middle;resizable=0;points=[];" vertex="1" connectable="0" parent="Cx4m4QL9GT3mK0Wsf1BY-36">
          <mxGeometry x="-0.2759" y="-2" relative="1" as="geometry">
            <mxPoint x="23.81" y="-10.18" as="offset" />
          </mxGeometry>
        </mxCell>
        <mxCell id="Cx4m4QL9GT3mK0Wsf1BY-39" value="上传完成" style="html=1;verticalAlign=bottom;endArrow=block;exitX=0.2;exitY=0.88;exitDx=0;exitDy=0;exitPerimeter=0;entryX=0.5;entryY=0.855;entryDx=0;entryDy=0;entryPerimeter=0;" edge="1" parent="1" source="Cx4m4QL9GT3mK0Wsf1BY-30" target="Cx4m4QL9GT3mK0Wsf1BY-25">
          <mxGeometry width="80" relative="1" as="geometry">
            <mxPoint x="1040" y="554" as="sourcePoint" />
            <mxPoint x="700" y="554" as="targetPoint" />
          </mxGeometry>
        </mxCell>
        <mxCell id="Cx4m4QL9GT3mK0Wsf1BY-40" value="上传完成返回视频信息&lt;br&gt;图片唯一ID&amp;nbsp;" style="html=1;verticalAlign=bottom;endArrow=block;" edge="1" parent="1">
          <mxGeometry x="0.0091" y="-14" width="80" relative="1" as="geometry">
            <mxPoint x="679.5" y="570" as="sourcePoint" />
            <mxPoint x="160" y="570" as="targetPoint" />
            <Array as="points">
              <mxPoint x="650" y="570" />
            </Array>
            <mxPoint as="offset" />
          </mxGeometry>
        </mxCell>
        <mxCell id="Cx4m4QL9GT3mK0Wsf1BY-45" value="保存结果" style="html=1;verticalAlign=bottom;endArrow=block;entryX=0.5;entryY=0.571;entryDx=0;entryDy=0;entryPerimeter=0;" edge="1" parent="1" target="Cx4m4QL9GT3mK0Wsf1BY-41">
          <mxGeometry x="0.0091" y="-14" width="80" relative="1" as="geometry">
            <mxPoint x="400" y="700" as="sourcePoint" />
            <mxPoint x="160" y="700" as="targetPoint" />
            <Array as="points" />
            <mxPoint as="offset" />
          </mxGeometry>
        </mxCell>
      </root>
    </mxGraphModel>
  </diagram>
</mxfile>
